<svg width="24.000000" height="24.000000" viewBox="0 0 24 24" fill="none" xmlns="http://www.w3.org/2000/svg" xmlns:xlink="http://www.w3.org/1999/xlink">
	<desc>
			Created with Pixso.
	</desc>
	<defs/>
	<path id="Vector" d="M7.29 18.98C6.87 18.98 6.41 18.65 6.27 18.25L2.12 6.67C1.54 5.01 2.23 4.5 3.65 5.52L7.54 8.3C8.2 8.76 8.94 8.53 9.21 7.79L10.98 3.1C11.54 1.6 12.46 1.6 13.03 3.1L14.79 7.79C15.07 8.53 15.81 8.76 16.45 8.3L20.11 5.69C21.66 4.57 22.41 5.15 21.78 6.95L17.74 18.27C17.58 18.65 17.12 18.98 16.7 18.98L7.29 18.98Z" stroke="#FF4D4D" stroke-opacity="1.000000" stroke-width="1.500000" stroke-linejoin="round"/>
	<path id="Vector" d="M6.5 22L17.5 22" stroke="#FF4D4D" stroke-opacity="1.000000" stroke-width="1.500000" stroke-linejoin="round" stroke-linecap="round"/>
	<path id="Vector" d="M9.5 14L14.5 14" stroke="#FF4D4D" stroke-opacity="1.000000" stroke-width="1.500000" stroke-linejoin="round" stroke-linecap="round"/>
	<g opacity="0.000000"/>
</svg>
