<svg width="35.000000" height="39.000000" viewBox="0 0 35 39" fill="none" xmlns="http://www.w3.org/2000/svg" xmlns:xlink="http://www.w3.org/1999/xlink">
	<desc>
			Created with Pixso.
	</desc>
	<defs/>
	<path id="path26" d="M16.11 18.47L-0.04 35.62C-0.04 35.62 -0.04 35.62 -0.04 35.63C0.46 37.49 2.16 38.86 4.17 38.86C4.98 38.86 5.74 38.64 6.39 38.26L6.44 38.23L24.62 27.73L16.11 18.47Z" fill="#EB3131" fill-opacity="1.000000" fill-rule="nonzero"/>
	<path id="path28" d="M32.46 15.55L32.44 15.54L24.59 10.99L15.75 18.86L24.62 27.73L32.43 23.23C33.8 22.49 34.73 21.04 34.73 19.38C34.73 17.73 33.81 16.29 32.46 15.55Z" fill="#F6B60B" fill-opacity="1.000000" fill-rule="nonzero"/>
	<path id="path30" d="M-0.04 3.07C-0.14 3.43 -0.19 3.81 -0.19 4.19L-0.19 34.49C-0.19 34.88 -0.14 35.26 -0.04 35.62L16.67 18.91L-0.04 3.07Z" fill="#5778C5" fill-opacity="1.000000" fill-rule="nonzero"/>
	<path id="path32" d="M16.23 19.34L24.59 10.98L6.43 0.45C5.77 0.06 5 -0.17 4.17 -0.17C2.16 -0.17 0.45 1.2 -0.04 3.07C-0.04 3.07 -0.04 3.07 -0.04 3.07L16.23 19.34Z" fill="#3BAD49" fill-opacity="1.000000" fill-rule="nonzero"/>
</svg>
