<svg width="24.000000" height="24.000000" viewBox="0 0 24 24" fill="none" xmlns="http://www.w3.org/2000/svg" xmlns:xlink="http://www.w3.org/1999/xlink">
	<desc>
			Created with Pixso.
	</desc>
	<defs/>
	<path id="Vector" d="M11.5 21.75C5.84 21.75 1.25 17.14 1.25 11.5C1.25 5.85 5.84 1.25 11.5 1.25C17.15 1.25 21.75 5.85 21.75 11.5C21.75 17.14 17.15 21.75 11.5 21.75ZM11.5 2.75C6.66 2.75 2.75 6.67 2.75 11.5C2.75 16.32 6.66 20.25 11.5 20.25C16.33 20.25 20.25 16.32 20.25 11.5C20.25 6.67 16.33 2.75 11.5 2.75Z" fill="#7E8794" fill-opacity="1.000000" fill-rule="nonzero"/>
	<path id="Vector" d="M22 22.75C21.8 22.75 21.61 22.67 21.46 22.53L19.46 20.53C19.17 20.24 19.17 19.76 19.46 19.46C19.75 19.17 20.24 19.17 20.52 19.46L22.52 21.47C22.82 21.76 22.82 22.24 22.52 22.53C22.37 22.67 22.18 22.75 22 22.75Z" fill="#7E8794" fill-opacity="1.000000" fill-rule="nonzero"/>
	<g opacity="0.000000"/>
</svg>
