<svg width="24.000000" height="24.000000" viewBox="0 0 24 24" fill="none" xmlns="http://www.w3.org/2000/svg" xmlns:xlink="http://www.w3.org/1999/xlink">
	<desc>
			Created with Pixso.
	</desc>
	<defs/>
	<rect id="vuesax/outline/add" width="24.000000" height="24.000000" fill="#FFFFFF" fill-opacity="0"/>
	<g opacity="0.000000"/>
	<path id="Vector" d="M18.21 4.74L18.21 4.71C18.51 4.42 18.98 4.42 19.28 4.71C19.57 5.01 19.57 5.48 19.28 5.78L19.25 5.78L18.21 4.74ZM5.78 19.25L5.78 19.28C5.48 19.57 5.01 19.57 4.71 19.28C4.42 18.98 4.42 18.51 4.71 18.21L4.74 18.21L5.78 19.25Z" fill="#A1ABB9" fill-opacity="1.000000" fill-rule="nonzero"/>
	<path id="Vector" d="M18.75 5.25L5.25 18.75" stroke="#A1ABB9" stroke-opacity="1.000000" stroke-width="1.500000" stroke-linejoin="round" stroke-linecap="round"/>
	<path id="Vector" d="M19.25 18.21L19.28 18.21C19.57 18.51 19.57 18.98 19.28 19.28C18.98 19.57 18.51 19.57 18.21 19.28L18.21 19.25L19.25 18.21ZM4.74 5.78L4.71 5.78C4.42 5.48 4.42 5.01 4.71 4.71C5.01 4.42 5.48 4.42 5.78 4.71L5.78 4.74L4.74 5.78Z" fill="#A1ABB9" fill-opacity="1.000000" fill-rule="nonzero"/>
	<path id="Vector" d="M18.75 18.75L5.25 5.25" stroke="#A1ABB9" stroke-opacity="1.000000" stroke-width="1.500000" stroke-linejoin="round" stroke-linecap="round"/>
</svg>
