<svg width="20.000000" height="20.000000" viewBox="0 0 20 20" fill="none" xmlns="http://www.w3.org/2000/svg" xmlns:xlink="http://www.w3.org/1999/xlink">
	<desc>
			Created with Pixso.
	</desc>
	<defs/>
	<path id="Vector" d="M17.5 4.98C14.72 4.7 11.93 4.56 9.15 4.56C7.5 4.56 5.84 4.65 4.19 4.81L2.5 4.98L17.5 4.98ZM17.53 4.37L17.56 4.36C17.91 4.39 18.15 4.69 18.12 5.04C18.08 5.39 17.78 5.63 17.43 5.6L17.41 5.58L17.53 4.37ZM2.57 5.58L2.56 5.6C2.21 5.63 1.91 5.39 1.87 5.04C1.84 4.69 2.08 4.39 2.43 4.36L2.46 4.37L2.57 5.58Z" fill="#A1ABB9" fill-opacity="1.000000" fill-rule="nonzero"/>
	<path id="Vector" d="M17.5 4.98C14.72 4.7 11.93 4.56 9.15 4.56C7.5 4.56 5.84 4.65 4.19 4.81L2.5 4.98" stroke="#A1ABB9" stroke-opacity="1.000000" stroke-width="1.250000" stroke-linejoin="round" stroke-linecap="round"/>
	<path id="Vector" d="M7.08 4.14L7.26 3.04C7.4 2.25 7.5 1.66 8.9 1.66L11.09 1.66C12.5 1.66 12.6 2.29 12.73 3.05L12.91 4.14" stroke="#A1ABB9" stroke-opacity="1.000000" stroke-width="1.250000" stroke-linejoin="round" stroke-linecap="round"/>
	<path id="Vector" d="M15.7 7.61L15.16 16C15.07 17.31 15 18.33 12.67 18.33L7.32 18.33C5 18.33 4.92 17.31 4.83 16L4.29 7.61" stroke="#A1ABB9" stroke-opacity="1.000000" stroke-width="1.250000" stroke-linejoin="round" stroke-linecap="round"/>
	<path id="Vector" d="M8.6 13.75L11.38 13.75" stroke="#A1ABB9" stroke-opacity="1.000000" stroke-width="1.250000" stroke-linejoin="round" stroke-linecap="round"/>
	<path id="Vector" d="M7.91 10.41L12.08 10.41" stroke="#A1ABB9" stroke-opacity="1.000000" stroke-width="1.250000" stroke-linejoin="round" stroke-linecap="round"/>
	<g opacity="0.000000"/>
</svg>
